<svg width="91" height="29" viewBox="0 0 91 29" fill="none" xmlns="http://www.w3.org/2000/svg">
<path d="M5.88 9.32V13.76H13.656V16.88H5.88V23H1.992V6.2H14.688V9.32H5.88ZM16.8218 10.088H20.5658V23H16.8218V10.088ZM18.6938 8.288C18.0058 8.288 17.4458 8.088 17.0138 7.688C16.5818 7.288 16.3658 6.792 16.3658 6.2C16.3658 5.608 16.5818 5.112 17.0138 4.712C17.4458 4.312 18.0058 4.112 18.6938 4.112C19.3818 4.112 19.9418 4.304 20.3738 4.688C20.8058 5.072 21.0218 5.552 21.0218 6.128C21.0218 6.752 20.8058 7.272 20.3738 7.688C19.9418 8.088 19.3818 8.288 18.6938 8.288ZM32.2485 23L29.4165 19.04L26.4885 23H22.4085L27.3765 16.496L22.5765 10.088H26.7765L29.5125 13.856L32.3205 10.088H36.3045L31.5045 16.4L36.4965 23H32.2485Z" fill="white"/>
<path d="M42.4659 9.32V13.76H50.2419V16.88H42.4659V23H38.5779V6.2H51.2739V9.32H42.4659ZM59.4579 23.192C58.0979 23.192 56.8739 22.912 55.7859 22.352C54.7139 21.776 53.8739 20.984 53.2659 19.976C52.6579 18.968 52.3539 17.824 52.3539 16.544C52.3539 15.264 52.6579 14.12 53.2659 13.112C53.8739 12.104 54.7139 11.32 55.7859 10.76C56.8739 10.184 58.0979 9.896 59.4579 9.896C60.8179 9.896 62.0339 10.184 63.1059 10.76C64.1779 11.32 65.0179 12.104 65.6259 13.112C66.2339 14.12 66.5379 15.264 66.5379 16.544C66.5379 17.824 66.2339 18.968 65.6259 19.976C65.0179 20.984 64.1779 21.776 63.1059 22.352C62.0339 22.912 60.8179 23.192 59.4579 23.192ZM59.4579 20.12C60.4179 20.12 61.2019 19.8 61.8099 19.16C62.4339 18.504 62.7459 17.632 62.7459 16.544C62.7459 15.456 62.4339 14.592 61.8099 13.952C61.2019 13.296 60.4179 12.968 59.4579 12.968C58.4979 12.968 57.7059 13.296 57.0819 13.952C56.4579 14.592 56.1459 15.456 56.1459 16.544C56.1459 17.632 56.4579 18.504 57.0819 19.16C57.7059 19.8 58.4979 20.12 59.4579 20.12ZM76.8501 23L74.0181 19.04L71.0901 23H67.0101L71.9781 16.496L67.1781 10.088H71.3781L74.1141 13.856L76.9221 10.088H80.9061L76.1061 16.4L81.0981 23H76.8501Z" fill="#FFD166"/>
</svg>
