<svg width="164" height="164" viewBox="0 0 164 164" fill="none" xmlns="http://www.w3.org/2000/svg">
<path d="M102.652 52.3689H59.5522C55.5849 52.3689 52.3689 55.5849 52.3689 59.5522V102.652C52.3689 106.619 55.5849 109.835 59.5522 109.835H102.652C106.619 109.835 109.835 106.619 109.835 102.652V59.5522C109.835 55.5849 106.619 52.3689 102.652 52.3689Z" fill="#C4C4C4"/>
<path d="M101.754 98.6114H60.4501L71.225 85.1427L78.8573 93.2239L89.1833 81.1021L101.754 98.6114Z" fill="white"/>
<path d="M138.569 138.569C169.81 107.327 169.81 56.6734 138.569 25.4315C107.327 -5.81049 56.6734 -5.81049 25.4315 25.4315C-5.81049 56.6734 -5.81049 107.327 25.4315 138.569C56.6734 169.81 107.327 169.81 138.569 138.569Z" stroke="#C4C4C4" stroke-width="3" stroke-dasharray="6 6"/>
</svg>
