<svg width="22" height="22" viewBox="0 0 22 22" fill="none" xmlns="http://www.w3.org/2000/svg">
<path d="M21.2485 6.375L8.43896 6.375C8.35668 6.37494 8.27519 6.3911 8.19915 6.42256C8.12312 6.45402 8.05403 6.50016 7.99584 6.55834C7.93766 6.61653 7.89152 6.68562 7.86006 6.76165C7.8286 6.83769 7.81244 6.91918 7.8125 7.00146V8.87354C7.81244 8.95582 7.8286 9.03731 7.86006 9.11335C7.89152 9.18938 7.93766 9.25847 7.99584 9.31666C8.05403 9.37484 8.12312 9.42098 8.19915 9.45244C8.27519 9.4839 8.35668 9.50006 8.43896 9.5L21.2485 9.5C21.3308 9.50006 21.4123 9.4839 21.4883 9.45244C21.5644 9.42098 21.6335 9.37484 21.6917 9.31666C21.7498 9.25847 21.796 9.18938 21.8274 9.11335C21.8589 9.03731 21.8751 8.95582 21.875 8.87354L21.875 7.00146C21.8751 6.91918 21.8589 6.83769 21.8274 6.76165C21.796 6.68562 21.7498 6.61653 21.6917 6.55834C21.6335 6.50016 21.5644 6.45402 21.4883 6.42256C21.4123 6.3911 21.3308 6.37494 21.2485 6.375ZM21.2485 18.875H8.43896C8.35668 18.8749 8.27519 18.8911 8.19915 18.9226C8.12312 18.954 8.05403 19.0002 7.99584 19.0583C7.93766 19.1165 7.89152 19.1856 7.86006 19.2617C7.8286 19.3377 7.81244 19.4192 7.8125 19.5015V21.3735C7.81244 21.4558 7.8286 21.5373 7.86006 21.6133C7.89152 21.6894 7.93766 21.7585 7.99584 21.8167C8.05403 21.8748 8.12312 21.921 8.19915 21.9524C8.27519 21.9839 8.35668 22.0001 8.43896 22H21.2485C21.3308 22.0001 21.4123 21.9839 21.4883 21.9524C21.5644 21.921 21.6335 21.8748 21.6917 21.8167C21.7498 21.7585 21.796 21.6894 21.8274 21.6133C21.8589 21.5373 21.8751 21.4558 21.875 21.3735V19.5015C21.8751 19.4192 21.8589 19.3377 21.8274 19.2617C21.796 19.1856 21.7498 19.1165 21.6917 19.0583C21.6335 19.0002 21.5644 18.954 21.4883 18.9226C21.4123 18.8911 21.3308 18.8749 21.2485 18.875ZM0.78125 15.75L21.0937 15.75C21.301 15.75 21.4997 15.6677 21.6462 15.5212C21.7927 15.3747 21.875 15.176 21.875 14.9688V13.4062C21.875 13.199 21.7927 13.0003 21.6462 12.8538C21.4997 12.7073 21.301 12.625 21.0937 12.625L0.78125 12.625C0.574049 12.625 0.375336 12.7073 0.228823 12.8538C0.0823097 13.0003 0 13.199 0 13.4062V14.9687C0 15.176 0.0823097 15.3747 0.228823 15.5212C0.375336 15.6677 0.574049 15.75 0.78125 15.75ZM0.78125 3.25L21.0937 3.25C21.301 3.25 21.4997 3.16769 21.6462 3.02118C21.7927 2.87466 21.875 2.67595 21.875 2.46875V0.90625C21.875 0.699049 21.7927 0.500336 21.6462 0.353823C21.4997 0.20731 21.301 0.125 21.0937 0.125L0.78125 0.125C0.574049 0.125 0.375336 0.20731 0.228823 0.353823C0.0823097 0.500336 0 0.699049 0 0.90625V2.46875C0 2.67595 0.0823097 2.87466 0.228823 3.02118C0.375336 3.16769 0.574049 3.25 0.78125 3.25Z" fill="white"/>
</svg>
